<?xml version="1.0" standalone="no"?>
<!DOCTYPE svg PUBLIC "-//W3C//DTD SVG 20010904//EN"
 "http://www.w3.org/TR/2001/REC-SVG-20010904/DTD/svg10.dtd">
<svg version="1.0" xmlns="http://www.w3.org/2000/svg"
 width="343.000000pt" height="343.000000pt" viewBox="0 0 343.000000 343.000000"
 preserveAspectRatio="xMidYMid meet">
<metadata>
Created by potrace 1.14, written by Peter Selinger 2001-2017
</metadata>
<g transform="translate(0.000000,343.000000) scale(0.100000,-0.100000)"
fill="#000000" stroke="none">
<path d="M1726 3307 c3 -10 9 -15 12 -12 3 3 0 11 -7 18 -10 9 -11 8 -5 -6z"/>
<path d="M1707 3280 c-3 -11 -11 -20 -17 -20 -8 0 -9 5 -4 13 5 7 -2 1 -15
-13 -13 -14 -21 -20 -18 -15 2 6 1 19 -4 30 -8 18 -8 18 -6 -4 1 -13 -4 -26
-12 -29 -9 -3 -11 0 -6 9 5 8 4 10 0 6 -12 -10 -15 -38 -7 -51 10 -16 11 -36
3 -36 -4 0 -16 -7 -27 -15 -13 -11 -14 -14 -4 -13 8 2 14 -3 12 -10 -1 -8 2
-11 7 -7 6 3 8 12 4 20 -4 11 2 15 18 14 17 0 20 -2 9 -7 -17 -8 -20 -40 -6
-61 6 -10 6 -12 -2 -7 -16 10 -15 -7 1 -23 10 -11 8 -11 -11 -2 -18 10 -21 15
-12 26 8 9 8 15 0 20 -6 4 -10 3 -9 -2 1 -4 0 -10 -1 -13 -6 -18 -7 -39 -1
-35 12 7 9 -89 -2 -96 -5 -4 0 -10 12 -14 12 -3 19 -11 15 -16 -3 -6 -12 -5
-21 3 -15 12 -15 11 -3 -9 12 -18 17 -20 30 -10 13 10 13 10 2 -5 -9 -11 -10
-18 -2 -23 5 -3 10 -11 10 -16 0 -6 -7 -3 -16 5 -8 9 -21 16 -27 15 -9 0 -8
-2 1 -6 6 -2 12 -9 12 -14 0 -6 -10 -5 -22 2 -18 9 -20 9 -12 0 6 -7 20 -14
30 -15 11 -2 19 -11 19 -22 0 -10 7 -22 15 -27 10 -5 7 -6 -7 -3 -16 3 -23 -1
-23 -11 0 -8 5 -11 13 -7 9 5 9 4 0 -6 -8 -9 -9 -19 -2 -31 7 -15 6 -17 -5
-13 -8 3 -13 14 -11 25 2 10 0 21 -5 24 -5 3 -7 -3 -5 -14 2 -11 -3 -25 -11
-32 -16 -13 -20 -54 -4 -44 6 4 8 10 6 14 -3 4 -1 13 3 19 6 10 11 9 21 -3 11
-13 10 -15 -6 -9 -10 4 -16 4 -12 -1 4 -4 3 -14 -3 -21 -8 -10 -15 -10 -36 1
-17 9 -31 11 -38 5 -7 -6 -16 -5 -24 3 -11 10 -11 8 -1 -12 7 -13 7 -21 2 -17
-6 3 -13 2 -17 -4 -3 -5 -1 -10 6 -10 7 0 10 -2 7 -5 -8 -8 -38 6 -38 17 0 5
4 7 9 3 5 -3 13 0 17 6 4 8 3 9 -4 5 -7 -4 -12 -2 -12 4 0 7 -5 6 -14 -2 -8
-7 -12 -16 -9 -20 2 -5 -5 -8 -15 -8 -11 0 -22 -7 -26 -15 -3 -9 -12 -12 -22
-8 -14 5 -16 3 -11 -11 4 -11 3 -15 -4 -11 -6 4 -8 13 -6 19 3 7 1 19 -5 27
-8 12 -9 11 -5 -2 3 -8 -1 -25 -8 -38 -10 -20 -13 -21 -18 -7 -4 10 -3 15 2
11 11 -6 8 22 -4 32 -4 4 -5 3 -2 -3 4 -7 0 -17 -8 -24 -14 -12 -20 -7 -15 15
1 5 -2 6 -7 2 -4 -5 -8 -14 -8 -20 0 -7 -7 -12 -15 -12 -9 0 -14 -8 -12 -20 3
-17 2 -17 -14 -4 -16 13 -16 12 -5 -9 6 -12 8 -22 4 -21 -30 5 -55 -2 -50 -15
4 -10 -1 -13 -19 -11 -14 1 -24 -3 -24 -10 0 -8 9 -11 23 -9 20 4 20 3 -3 -6
-17 -8 -26 -8 -28 0 -2 5 -8 7 -13 4 -6 -3 -5 -11 2 -20 7 -8 7 -14 1 -14 -14
0 -23 26 -16 48 5 16 5 16 -6 -1 -6 -9 -8 -27 -5 -40 6 -20 5 -21 -8 -4 -13
16 -15 16 -21 2 -3 -10 -11 -13 -18 -9 -7 4 -10 4 -6 -1 4 -4 0 -14 -10 -22
-15 -12 -14 -13 8 -2 14 7 29 17 33 23 5 7 6 3 3 -8 -5 -14 -2 -17 9 -12 10 3
13 2 10 -4 -4 -6 -12 -10 -18 -9 -25 3 -38 -1 -32 -10 3 -5 1 -12 -4 -15 -13
-8 -43 23 -35 36 4 7 2 8 -4 4 -8 -5 -9 -13 -2 -25 5 -10 6 -22 2 -26 -4 -5
-1 -5 5 -1 9 5 11 2 6 -10 -5 -14 -8 -13 -19 7 l-12 24 -1 -25 c-1 -46 -4 -59
-15 -57 -6 1 -10 -6 -10 -16 2 -17 1 -17 -17 -1 -11 10 -17 24 -14 31 3 8 0
11 -6 8 -6 -4 -8 -13 -5 -20 3 -8 -1 -19 -9 -25 -7 -6 -12 -28 -11 -49 0 -22
-2 -37 -6 -35 -7 5 -23 -36 -20 -49 1 -5 -2 -6 -7 -3 -10 7 -26 -23 -30 -56
-1 -9 -4 -10 -9 -2 -8 13 -44 15 -36 2 3 -5 9 -6 14 -3 4 3 11 -2 14 -10 4
-11 0 -15 -11 -13 -12 2 -18 -4 -19 -19 -1 -12 2 -21 6 -18 4 2 7 -2 7 -10 0
-8 -5 -13 -10 -12 -5 1 -12 -4 -15 -12 -2 -8 0 -11 6 -7 6 3 9 0 8 -6 -1 -7
-6 -13 -11 -13 -6 0 -9 3 -8 7 1 3 -4 12 -12 18 -11 9 -15 9 -15 1 0 -6 4 -11
9 -11 10 0 7 -32 -3 -48 -3 -5 1 -21 9 -36 8 -16 10 -24 3 -20 -7 5 -9 2 -6
-8 4 -8 0 -15 -7 -15 -10 0 -11 5 -4 19 7 14 6 20 -6 24 -9 4 -21 2 -27 -4 -8
-8 -4 -9 12 -5 20 5 21 4 11 -16 -7 -12 -16 -19 -21 -16 -5 3 -12 1 -15 -5 -4
-6 -3 -10 2 -9 20 3 25 -2 14 -15 -9 -11 -9 -16 0 -22 8 -5 9 -3 4 6 -5 8 -4
11 3 6 7 -4 10 1 7 14 -3 17 -1 19 16 10 23 -13 25 -22 2 -13 -9 4 -14 2 -11
-3 4 -5 -5 -23 -19 -39 -20 -25 -24 -26 -18 -8 3 13 1 24 -7 29 -7 4 -10 4 -6
-1 11 -12 -11 -47 -25 -38 -18 11 -49 14 -43 5 3 -5 -1 -9 -10 -9 -9 0 -13 7
-9 21 3 12 2 15 -1 8 -3 -6 -10 -9 -16 -6 -6 4 -8 -2 -4 -17 3 -13 3 -18 0
-11 -8 17 -22 15 -27 -5 -4 -17 -5 -17 -6 -1 -1 14 -5 16 -26 8 -18 -7 -23 -6
-19 4 3 7 16 12 29 10 27 -2 42 11 24 22 -6 3 -15 1 -19 -5 -9 -15 -31 -11
-48 9 -11 13 -12 12 -3 -6 8 -17 6 -25 -12 -40 -15 -13 -18 -14 -9 -3 7 9 9
24 6 34 -5 13 -9 14 -15 3 -7 -10 -9 -10 -9 2 0 13 -2 13 -9 1 -8 -13 -12 -13
-27 0 -16 12 -15 11 1 -16 l19 -30 -20 18 c-27 22 -40 22 -23 0 12 -16 12 -17
-2 -6 -9 7 -19 9 -23 5 -5 -4 -6 1 -4 12 2 12 -3 20 -14 21 -14 3 -16 0 -8
-15 13 -25 12 -40 -1 -17 -8 14 -14 16 -25 6 -16 -13 -19 2 -3 18 8 8 7 13 -2
18 -7 5 -10 4 -5 -3 3 -6 -3 -17 -14 -25 -11 -7 -17 -16 -14 -20 3 -3 -4 -3
-15 0 -17 4 -20 2 -15 -13 3 -11 2 -15 -3 -9 -14 17 -35 16 -49 -2 -12 -17
-13 -17 -10 3 3 12 -1 21 -9 21 -15 0 -14 -22 3 -39 7 -7 16 -8 25 -2 7 5 1
-1 -13 -13 -14 -13 -28 -23 -32 -23 -4 0 -4 -7 -1 -17 4 -9 2 -14 -3 -10 -6 3
-11 -3 -11 -15 -1 -14 3 -18 14 -14 8 4 21 2 27 -3 6 -5 14 -10 19 -10 4 -1 7
-3 7 -6 0 -3 0 -10 0 -17 0 -6 -7 -3 -16 8 -15 18 -15 18 -5 -2 6 -12 7 -25 3
-30 -4 -5 0 -3 10 4 11 9 18 10 23 2 4 -6 14 -9 23 -8 9 2 16 -3 14 -9 -1 -7
3 -13 9 -13 6 0 8 8 4 19 -8 25 23 36 45 16 9 -8 19 -12 23 -9 3 3 4 -5 1 -18
-3 -15 -2 -18 3 -8 10 18 33 24 33 8 0 -6 3 -8 7 -5 3 4 12 -1 20 -11 13 -15
13 -15 4 4 -6 12 -8 24 -5 26 2 3 -7 4 -21 3 -14 -2 -25 1 -25 6 0 9 26 8 70
-2 8 -2 14 2 12 9 -1 8 2 11 8 7 6 -3 8 -11 5 -16 -4 -5 3 -9 14 -9 10 0 22 6
24 13 3 7 6 5 6 -5 1 -9 -7 -22 -16 -27 -17 -10 -17 -10 0 -11 9 0 17 5 17 11
0 5 4 7 10 4 5 -3 7 0 4 8 -3 8 0 18 7 23 7 4 10 3 6 -3 -8 -12 16 -25 50 -28
13 -1 19 3 16 11 -2 6 1 15 8 20 8 5 10 3 5 -5 -10 -15 25 -11 36 4 5 6 8 5 8
-2 0 -7 7 -13 15 -13 8 0 20 -9 27 -20 7 -11 16 -20 21 -20 4 0 6 4 3 9 -4 5
-3 11 1 14 5 2 3 3 -3 1 -13 -3 -34 15 -34 28 0 4 5 8 10 8 6 0 9 -5 8 -12 -2
-7 6 -12 17 -13 13 0 19 -6 17 -17 -2 -13 2 -16 15 -12 15 5 16 4 3 -5 -8 -6
-10 -11 -5 -11 6 0 1 -7 -9 -15 -23 -17 -14 -20 17 -4 16 7 13 2 -8 -16 -21
-18 -24 -24 -10 -19 11 4 27 12 35 18 13 10 13 9 1 -6 -7 -10 -11 -18 -7 -18
3 0 1 -11 -4 -25 -6 -16 -6 -26 1 -31 6 -3 4 -11 -6 -18 -16 -11 -15 -13 2
-27 17 -13 17 -13 3 5 -13 18 -13 19 1 14 18 -7 23 23 5 34 -8 6 -8 8 0 8 14
0 48 -49 40 -58 -3 -3 -6 0 -6 7 0 7 -4 9 -10 6 -18 -11 -11 -34 10 -30 11 2
23 -1 26 -7 4 -6 3 -8 -3 -5 -6 4 -17 -1 -24 -10 -13 -15 -11 -16 16 -10 l30
7 -25 -15 c-14 -8 -21 -14 -17 -15 4 0 3 -9 -3 -19 -8 -16 -7 -19 7 -17 9 2
19 9 21 17 3 11 1 11 -7 -1 -7 -9 -11 -10 -11 -3 0 6 4 14 9 18 15 9 23 -13
11 -34 -7 -14 -7 -22 1 -27 8 -4 3 -12 -12 -21 -19 -11 -20 -13 -4 -9 26 7 39
-2 59 -41 23 -45 55 -73 75 -65 14 5 14 4 -1 -12 -22 -21 -24 -33 -3 -16 12
10 15 10 15 0 0 -8 3 -10 7 -7 3 4 12 2 20 -4 11 -10 11 -15 1 -27 -11 -13
-10 -15 4 -9 10 3 20 2 23 -4 4 -5 12 -6 18 -3 8 5 8 3 -1 -7 -6 -7 -12 -21
-12 -31 0 -14 6 -17 23 -14 21 4 67 -23 67 -39 0 -4 -6 -2 -14 4 -11 9 -16 9
-22 0 -4 -7 -3 -9 4 -5 6 3 14 2 17 -4 4 -6 16 -8 28 -5 17 5 19 4 7 -4 -11
-8 -12 -11 -2 -11 7 0 10 -5 7 -11 -4 -6 1 -6 12 2 15 9 24 9 39 0 16 -10 15
-10 -11 -5 -29 5 -29 5 -11 -10 11 -9 24 -16 29 -16 4 0 5 -5 2 -10 -3 -6 -1
-10 4 -10 6 0 11 5 11 10 0 6 4 10 9 10 4 0 7 -11 6 -25 -3 -26 9 -42 20 -25
12 19 26 10 20 -12 -5 -18 -4 -20 4 -8 8 12 11 12 11 1 0 -7 6 -11 14 -8 21 8
39 -16 23 -32 -9 -10 -9 -11 5 -6 9 4 19 13 22 21 4 10 2 12 -6 8 -7 -5 -8 -3
-3 6 6 9 4 11 -5 5 -9 -5 -11 -4 -6 3 4 7 2 12 -5 12 -7 0 -9 3 -6 6 4 4 13 2
20 -4 8 -7 17 -8 21 -4 4 4 6 0 4 -8 -2 -8 3 -14 10 -12 6 1 12 -3 12 -9 0 -6
-6 -9 -13 -6 -8 3 -14 -1 -14 -8 0 -17 32 -3 41 17 3 7 3 2 -1 -12 -5 -22 -4
-23 11 -11 12 10 19 11 30 2 7 -6 20 -9 28 -6 9 4 18 -1 22 -10 3 -9 2 -14 -2
-11 -5 3 -9 0 -9 -7 0 -7 8 -13 17 -13 9 0 17 7 16 15 -1 10 11 15 38 16 38 3
38 2 15 -10 -18 -10 -27 -11 -39 -2 -13 10 -13 10 -3 -4 7 -9 10 -19 6 -23 -4
-4 10 0 31 9 21 9 35 11 31 6 -3 -6 -1 -11 4 -11 6 0 11 -7 11 -15 0 -9 -6
-12 -15 -9 -8 4 -12 10 -9 15 3 5 0 9 -5 9 -14 0 -14 -17 -1 -25 5 -3 19 -8
29 -10 15 -3 18 1 14 13 -3 9 -3 14 1 10 4 -3 9 -14 10 -23 1 -9 9 -21 17 -27
11 -8 11 -9 -3 -4 -17 5 -24 -14 -19 -46 0 -5 -3 -8 -9 -8 -5 0 -10 -5 -10
-10 0 -6 3 -9 8 -9 20 3 33 -2 27 -11 -4 -6 -10 -8 -15 -5 -4 3 -6 -8 -4 -24
3 -19 -2 -40 -13 -58 -10 -15 -13 -24 -6 -20 14 9 45 -2 37 -14 -3 -5 -9 -7
-14 -4 -5 3 -12 0 -16 -6 -4 -8 -3 -9 4 -5 7 4 12 2 12 -5 0 -8 5 -7 18 2 15
13 16 12 4 -3 -9 -11 -10 -18 -2 -23 5 -3 10 -12 10 -18 0 -8 -3 -8 -8 -2 -4
6 -16 17 -27 25 -19 14 -19 14 -6 -3 13 -16 13 -20 0 -28 -11 -8 -10 -9 5 -7
10 2 21 -2 23 -9 3 -7 -4 -10 -19 -6 -18 4 -20 3 -8 -6 14 -10 13 -12 -9 -15
-5 0 -12 -4 -16 -8 -4 -3 1 -5 12 -3 10 2 18 4 18 6 0 1 10 3 23 4 12 1 20 0
16 -4 -3 -3 -9 -6 -12 -6 -16 -1 -32 -17 -26 -27 4 -6 0 -15 -7 -20 -10 -6 -6
-7 11 -3 20 6 23 5 13 -6 -17 -17 -17 -37 -1 -21 7 7 16 12 21 12 5 0 1 -7 -7
-16 -18 -18 -20 -30 -6 -39 6 -3 10 -11 10 -17 0 -7 -4 -7 -13 0 -9 8 -17 8
-27 0 -13 -8 -12 -9 2 -5 9 3 22 -1 29 -9 8 -10 21 -13 36 -9 13 3 23 1 23 -5
0 -6 4 -8 10 -5 5 3 10 1 10 -5 0 -6 4 -9 9 -5 5 3 12 1 16 -4 3 -6 -4 -8 -17
-5 -13 3 -28 6 -35 6 -7 1 -10 5 -7 10 3 4 -2 5 -11 2 -19 -8 -14 -14 12 -18
10 -2 18 -8 18 -14 0 -6 4 -14 9 -19 5 -5 6 -3 2 4 -4 7 -2 14 3 14 26 3 30 4
37 11 15 16 26 7 13 -9 -11 -16 -11 -16 1 -5 8 7 15 18 15 25 1 7 6 11 13 10
6 -2 9 4 6 12 -4 8 -11 12 -18 8 -6 -4 -5 1 3 10 7 9 19 17 25 17 8 0 8 -2 0
-8 -8 -5 -5 -13 9 -27 20 -20 20 -20 8 3 -13 24 -3 30 17 10 7 -7 12 -9 12 -5
0 4 -15 16 -32 27 -18 11 -27 20 -19 20 7 0 11 6 8 14 -4 10 -1 13 9 9 10 -4
11 -9 4 -18 -7 -8 -6 -12 4 -12 9 0 13 8 10 24 -2 12 -1 23 3 23 5 0 9 14 9
30 2 27 0 29 -11 13 -7 -9 -11 -23 -8 -30 6 -15 -6 -17 -25 -4 -11 7 -10 9 3
15 9 3 13 11 9 17 -4 8 -3 9 4 5 8 -5 12 0 12 13 0 11 8 25 18 31 16 11 16 11
0 6 -12 -3 -22 2 -29 17 -11 19 -10 21 3 9 20 -16 35 2 18 23 -7 8 -7 15 -1
19 5 3 12 0 14 -6 4 -9 6 -10 6 -1 1 18 -20 27 -29 12 -5 -7 -6 -17 -4 -21 3
-4 0 -8 -5 -8 -13 0 -14 10 -2 29 6 9 6 22 -1 34 -7 14 -7 17 1 13 6 -4 11 -2
11 3 0 6 5 11 11 11 5 0 7 -4 4 -10 -9 -15 1 -12 14 4 10 12 8 14 -17 11 -29
-4 -30 -2 -28 28 2 18 -2 35 -8 39 -7 5 -7 8 2 8 7 0 10 5 7 11 -4 6 3 13 14
16 l22 6 -21 14 c-15 11 -18 18 -11 27 7 9 7 17 -2 26 -10 12 -9 12 6 1 9 -8
20 -11 24 -7 4 3 -2 12 -12 19 -10 8 -15 20 -12 28 4 10 6 9 6 -3 1 -10 6 -18
12 -18 5 0 7 5 3 12 -4 7 -3 8 5 4 6 -4 9 -12 6 -17 -4 -5 -1 -9 4 -9 14 0 14
6 0 33 -7 12 -8 19 -4 15 4 -4 16 3 27 15 19 22 19 22 2 -8 l-18 -30 32 29
c18 17 32 26 32 20 0 -5 4 -3 9 4 7 11 9 11 14 -1 4 -12 0 -15 -15 -12 -11 3
-18 1 -14 -2 4 -4 15 -8 26 -10 14 -2 20 3 20 16 0 11 5 23 12 27 7 4 8 3 4
-4 -4 -7 -2 -12 5 -12 8 0 8 -4 -1 -15 -7 -9 -10 -18 -6 -22 3 -3 6 -1 6 6 0
7 4 10 9 6 6 -3 8 6 5 22 l-5 28 22 -30 c11 -16 19 -22 16 -13 -7 19 16 31 31
16 6 -6 12 -6 17 3 5 7 4 10 -1 6 -6 -3 -16 3 -22 14 -12 19 -11 19 22 5 30
-12 34 -12 29 0 -3 8 -8 12 -12 10 -4 -3 -13 0 -21 6 -12 8 -12 9 2 5 9 -3 19
-1 22 6 3 9 5 9 5 0 1 -7 8 -13 17 -13 8 0 13 -4 10 -8 -3 -5 1 -9 8 -9 11 0
12 4 3 18 -6 10 -15 16 -19 13 -4 -3 -5 2 -2 10 5 14 8 13 23 -2 9 -10 12 -13
8 -6 -4 7 -4 15 1 18 6 3 13 -1 16 -10 3 -8 11 -12 16 -9 7 4 8 11 1 18 -6 8
-5 18 4 30 11 16 13 16 19 2 3 -9 2 -13 -3 -10 -5 3 -12 1 -16 -5 -4 -6 4 -9
18 -8 17 2 23 7 19 17 -3 9 -1 12 6 7 7 -4 12 -3 12 3 0 5 -5 11 -12 13 -7 3
-5 7 6 11 10 4 15 3 11 -3 -3 -6 -1 -10 5 -10 6 0 9 -4 6 -8 -3 -5 1 -9 9 -9
12 0 12 3 2 16 -10 12 -9 14 8 8 l20 -7 -20 16 c-18 15 -18 16 -2 10 14 -4 20
0 24 14 3 11 9 17 14 14 5 -3 7 -10 4 -15 -11 -17 -14 -50 -4 -44 5 4 7 10 4
15 -3 5 2 16 11 24 8 9 11 16 5 16 -6 0 -11 4 -11 10 0 5 7 6 17 3 12 -5 14
-3 8 7 -5 8 -3 11 6 8 8 -3 13 -14 11 -24 -2 -15 -1 -16 7 -4 5 8 7 19 3 25
-11 18 -12 45 -1 45 5 0 7 -5 4 -10 -3 -6 -1 -10 5 -10 6 0 8 -6 5 -12 -4 -7
0 -5 8 4 8 10 18 14 22 10 5 -4 5 -1 1 6 -4 7 -12 10 -17 7 -5 -3 -6 2 -2 11
5 13 3 15 -7 9 -9 -6 -11 -4 -6 4 6 9 13 8 28 -5 19 -18 19 -17 9 8 -8 22 -8
26 4 21 8 -3 12 -10 8 -16 -3 -6 -1 -7 5 -3 6 3 9 20 7 36 -2 18 0 28 6 24 5
-3 7 -10 4 -15 -4 -5 5 -8 19 -7 15 1 26 6 26 11 0 5 -7 6 -16 3 -8 -3 -12 -2
-9 4 3 6 1 10 -4 10 -6 0 -3 9 6 20 12 14 20 16 29 9 8 -7 15 -6 20 2 4 7 3 9
-3 6 -6 -4 -13 0 -16 8 -4 9 -1 12 9 8 14 -5 18 7 15 52 -1 17 1 17 9 -3 6
-13 7 -29 3 -35 -3 -7 -2 -8 3 -4 5 5 9 19 9 30 0 17 5 21 25 19 19 -2 22 0
10 8 -14 9 -7 15 14 11 5 -1 5 4 -1 11 -14 16 -12 67 2 65 6 -1 9 6 8 16 0 12
4 16 13 13 19 -7 18 4 -3 34 l-16 25 28 -25 28 -25 -19 30 c-10 16 -13 26 -6
22 15 -10 16 5 2 19 -7 7 -6 11 4 11 8 0 13 -4 10 -8 -2 -4 0 -10 5 -14 6 -3
8 -12 5 -19 -3 -8 -2 -16 3 -19 12 -8 9 44 -4 69 -8 14 -8 25 -1 35 8 11 9 10
4 -4 -3 -11 -2 -16 4 -12 6 3 10 13 10 22 0 13 3 13 15 3 8 -7 12 -17 8 -23
-4 -6 -1 -7 6 -2 9 5 7 13 -9 30 l-21 22 23 17 23 17 -22 -11 c-16 -7 -23 -7
-23 0 0 5 4 10 10 10 5 0 6 7 3 17 -4 11 -3 14 5 9 7 -4 12 -3 12 3 0 5 -6 12
-12 14 -10 4 -10 6 0 6 7 1 10 6 7 11 -3 6 9 1 29 -10 38 -23 52 -15 41 23 -7
22 -7 22 9 2 9 -11 15 -14 14 -6 -2 7 5 15 15 16 10 2 14 -1 10 -8 -4 -6 0 -8
10 -4 10 4 16 2 14 -5 -3 -13 31 -20 39 -7 3 5 9 7 14 4 5 -3 7 4 5 15 -2 11
0 18 6 15 5 -4 6 -11 3 -17 -5 -7 2 -9 19 -6 16 3 24 1 20 -5 -3 -6 -1 -7 5
-3 6 4 23 -1 37 -10 23 -15 25 -15 19 0 -3 9 -10 14 -14 11 -4 -3 -13 2 -20
10 -10 12 -8 13 9 10 12 -2 21 1 21 8 0 7 4 7 9 -3 6 -8 8 -17 5 -21 -2 -4 1
-11 7 -15 8 -4 9 -3 5 4 -4 7 -2 12 3 12 6 0 10 5 9 12 -2 6 6 13 17 15 l20 3
-20 -9 c-19 -9 -18 -12 5 -15 6 0 15 -8 20 -16 8 -13 10 -12 10 3 0 19 25 23
36 5 4 -6 3 -8 -4 -4 -6 3 -14 1 -18 -6 -4 -7 -3 -10 1 -5 5 4 16 0 26 -9 11
-10 19 -12 24 -4 3 6 1 9 -6 8 -16 -4 -19 24 -4 34 17 12 28 9 17 -5 -8 -10
-6 -13 9 -13 11 0 18 5 16 11 -3 5 7 19 21 29 14 11 22 14 18 8 -4 -7 -3 -12
3 -12 6 0 8 -7 5 -15 -4 -8 -1 -15 6 -15 6 0 9 4 6 9 -8 12 19 33 29 23 5 -4
5 -1 1 6 -5 8 0 22 11 35 15 19 16 20 1 8 -11 -8 -18 -9 -18 -3 0 6 -10 9 -21
7 -12 -3 -18 -1 -15 3 4 4 17 7 29 7 13 0 22 6 22 15 1 8 6 14 11 13 12 -2 12
33 0 44 -4 5 -7 4 -6 -2 5 -21 0 -36 -10 -30 -6 4 -7 11 -4 17 4 6 -2 6 -15
-1 -11 -7 -22 -9 -22 -6 -1 3 -2 11 -3 18 -1 6 -7 11 -14 9 -7 -1 -15 5 -18
13 -5 11 -10 12 -26 4 -15 -8 -19 -8 -14 0 4 6 2 11 -4 11 -6 0 -9 3 -7 8 3 4
-1 12 -8 19 -10 10 -14 9 -19 -3 -3 -8 -2 -13 3 -9 5 3 8 -2 7 -10 -1 -9 -6
-14 -12 -13 -5 2 -8 6 -6 11 4 12 -23 8 -37 -5 -10 -11 -11 -10 -6 3 4 10 1
20 -6 25 -8 4 -10 3 -5 -4 4 -7 1 -12 -9 -12 -9 0 -14 -4 -10 -9 3 -5 1 -12
-4 -15 -11 -7 -9 13 3 33 6 10 5 12 -3 7 -6 -4 -18 -3 -25 3 -9 8 -13 7 -13
-4 0 -8 5 -11 11 -8 6 4 5 -1 -3 -10 -15 -18 -26 -23 -16 -7 3 6 -3 10 -15 10
-12 0 -19 -4 -15 -9 3 -5 1 -12 -4 -16 -6 -3 -8 3 -6 15 2 11 -1 20 -6 20 -6
0 -8 4 -4 9 3 5 0 13 -7 17 -7 4 -10 4 -6 -1 4 -4 2 -15 -5 -23 -10 -13 -9
-14 3 -7 13 8 13 7 1 -8 -15 -18 -26 -23 -16 -7 3 6 -3 10 -15 10 -12 0 -19
-4 -15 -9 3 -5 1 -12 -4 -15 -11 -7 -9 13 3 32 7 11 4 12 -10 4 -21 -10 -45
-5 -56 12 -5 8 -8 7 -8 -1 0 -7 -5 -13 -11 -13 -5 0 -7 5 -3 12 5 7 3 8 -5 3
-9 -5 -10 -10 -2 -18 6 -6 11 -16 11 -21 0 -6 -5 -3 -11 7 -6 10 -15 14 -22
10 -7 -4 -20 -9 -30 -10 -14 -2 -17 1 -12 17 3 11 2 20 -4 20 -5 0 -11 -7 -13
-16 -2 -10 -7 -5 -14 14 -10 25 -9 30 2 25 8 -3 11 -10 7 -16 -3 -6 -1 -7 5
-3 7 4 12 9 12 11 0 8 -57 34 -64 30 -3 -3 -2 0 3 6 6 8 15 8 28 0 15 -7 20
-7 20 3 0 7 -7 13 -15 12 -8 -1 -17 5 -19 12 -3 8 2 10 14 6 14 -5 15 -4 3 4
-8 6 -18 8 -23 5 -5 -3 -7 0 -5 8 3 8 1 22 -4 32 -5 10 -5 17 1 17 5 0 12 -6
14 -12 4 -10 6 -10 6 0 1 19 -30 27 -40 11 -7 -10 -8 -8 -6 8 2 12 7 26 12 30
4 5 5 2 0 -6 -5 -10 -4 -12 4 -7 15 10 3 29 -15 22 -7 -3 -16 0 -20 6 -4 7 -3
8 4 4 7 -4 12 -3 12 3 0 6 8 8 18 5 14 -5 15 -4 2 5 -8 6 -15 14 -15 19 0 5
-8 16 -17 25 -12 13 -18 14 -22 4 -3 -6 -4 -3 -3 8 1 12 -3 19 -11 17 -8 -1
-11 2 -7 8 3 6 11 8 16 5 5 -3 6 1 3 9 -3 8 -14 13 -24 11 -10 -2 -17 2 -16 8
1 7 6 12 11 12 6 0 9 -4 7 -9 -2 -5 4 -4 12 4 17 14 22 25 7 15 -5 -3 -12 -1
-16 5 -3 5 -1 10 6 10 7 0 10 3 7 6 -4 3 -16 0 -28 -6 -21 -11 -21 -11 -5 14
11 16 13 26 6 26 -6 0 -11 -7 -11 -15 0 -8 -5 -15 -11 -15 -6 0 -9 7 -5 15 3
8 2 14 -2 12 -4 -1 -8 3 -9 8 -1 6 5 9 13 7 8 -2 14 2 14 8 0 6 -4 8 -10 5 -5
-3 -10 -1 -10 6 0 8 -4 8 -15 -1 -9 -7 -18 -10 -22 -6 -3 3 -1 6 5 6 7 0 12 5
12 11 0 5 -3 8 -7 6 -5 -3 -15 2 -23 11 -13 14 -12 15 5 8 18 -7 18 -6 0 14
-19 21 -30 27 -20 10 3 -6 -1 -7 -9 -4 -15 6 -28 33 -25 50 4 23 -3 25 -28 8
-23 -14 -25 -14 -15 -1 11 13 10 17 -6 26 -11 6 -23 7 -27 3 -5 -4 -5 -2 -2 4
7 12 -16 38 -25 29 -2 -3 -5 2 -5 10 0 10 4 12 10 6 5 -5 17 -7 26 -4 12 4 13
3 3 -5 -11 -7 -7 -14 17 -31 23 -17 29 -18 25 -7 -3 9 -13 16 -21 16 -8 0 -13
8 -11 18 2 10 -3 17 -12 17 -8 0 -21 4 -27 8 -7 5 -18 5 -25 1 -6 -4 -8 -3 -4
4 3 6 2 13 -3 17 -6 3 -8 13 -5 23 5 14 4 14 -4 3 -6 -8 -8 -20 -5 -27 2 -6
-1 -15 -7 -19 -7 -4 -10 0 -8 11 2 11 -2 18 -9 17 -12 -3 -12 15 1 36 6 9 5
12 -2 7 -5 -3 -12 -3 -15 1 -2 5 -2 2 -1 -4 4 -16 1 -16 -30 -1 -20 9 -23 14
-14 25 6 7 8 16 4 20 -3 3 -6 1 -6 -5 0 -7 -7 -12 -16 -12 -8 0 -12 -5 -8 -11
4 -8 0 -7 -15 1 -18 9 -21 30 -5 30 3 0 2 -4 -1 -10 -8 -13 5 -13 25 0 13 8
13 10 -2 11 -39 3 -43 5 -42 22 2 13 -1 15 -11 7 -9 -8 -14 -5 -18 11 -5 17
-9 20 -19 11 -15 -12 -31 -5 -42 18 -3 9 -5 6 -2 -7 2 -12 -1 -24 -8 -27 -6
-2 0 -3 14 -2 14 1 31 6 38 10 7 4 12 1 12 -8 0 -19 -64 -17 -82 3 -10 11 -10
12 0 7 6 -4 12 -2 12 5 0 7 -11 10 -30 7 -17 -3 -34 0 -37 5 -3 6 -1 7 4 4 6
-4 17 1 24 11 12 15 12 16 -1 5 -10 -7 -21 -9 -30 -3 -17 10 -43 -7 -34 -22 3
-5 -3 -4 -14 3 -12 7 -18 17 -15 22 3 5 9 4 13 -3 5 -8 10 -9 14 -2 10 16 -11
24 -33 12 -14 -7 -22 -7 -27 1 -4 8 -9 7 -15 -2 -6 -10 -10 -9 -15 6 -5 11
-14 26 -21 33 -7 8 -11 17 -8 22 3 5 -1 11 -7 14 -9 4 -8 5 2 5 8 -1 22 -1 30
0 13 1 13 2 0 11 -13 9 -13 11 0 20 9 6 10 10 3 10 -6 0 -10 9 -8 20 2 12 0
18 -6 15 -5 -4 -6 -11 -3 -17 4 -6 2 -8 -4 -4 -7 4 -9 -2 -6 -19 2 -14 0 -25
-6 -25 -6 0 -8 5 -5 10 3 6 0 10 -7 10 -9 0 -10 3 -2 8 6 4 10 15 8 25 -1 9 2
14 8 11 11 -7 7 28 -6 37 -4 4 -4 15 2 25 5 11 6 28 2 39 -4 11 -3 25 2 32 6
7 5 20 -2 34 -7 12 -8 24 -4 28 16 11 15 33 -2 58 -9 14 -12 23 -7 20 4 -3 17
2 28 10 20 15 20 15 -2 9 -18 -6 -20 -4 -16 14 4 16 2 19 -13 14 -11 -3 -15
-2 -9 3 12 10 20 47 8 40 -14 -9 -14 46 -1 56 9 6 8 7 -4 3 -11 -3 -23 3 -31
15 -13 17 -15 18 -21 4 -4 -10 -2 -14 6 -9 7 4 8 3 4 -5 -4 -7 -2 -10 5 -9 6
2 13 -3 15 -10 1 -7 0 -8 -3 -2 -2 5 -8 8 -13 5 -5 -3 -17 6 -28 20 -19 24
-20 24 -25 5z m-44 -58 c-10 -7 -17 -21 -15 -30 2 -12 -2 -10 -14 7 -18 25
-10 37 26 37 20 0 20 -1 3 -14z m-30 -188 c3 -3 3 -13 0 -21 -5 -12 -7 -12
-14 -1 -15 23 -4 40 14 22z m-3 -54 c0 -5 -5 -10 -11 -10 -5 0 -7 5 -4 10 3 6
8 10 11 10 2 0 4 -4 4 -10z m-97 -305 c-10 -8 -20 -11 -23 -8 -3 3 1 8 8 10 6
3 10 9 7 14 -4 5 1 6 10 3 14 -6 14 -8 -2 -19z m-226 -72 c0 -9 -4 -10 -13 -2
-8 6 -14 6 -18 0 -3 -5 0 -12 6 -14 8 -4 7 -6 -3 -6 -9 -1 -20 6 -23 15 -3 8
-2 12 3 9 5 -3 12 -2 15 3 8 14 33 10 33 -5z m823 7 c0 -5 -5 -10 -11 -10 -5
0 -7 5 -4 10 3 6 8 10 11 10 2 0 4 -4 4 -10z m17 -22 c-3 -8 -6 -5 -6 6 -1 11
2 17 5 13 3 -3 4 -12 1 -19z m-597 -159 c0 -5 9 -9 21 -9 14 0 19 -5 16 -15
-4 -8 -2 -17 3 -20 4 -3 7 -16 5 -30 -3 -31 1 -31 16 -4 6 12 7 19 2 16 -5 -3
-9 4 -10 16 0 12 -3 31 -7 42 -6 16 -4 15 6 -3 8 -12 17 -20 20 -17 3 4 4 -11
2 -31 -2 -21 2 -45 9 -53 8 -10 9 -13 0 -8 -6 4 -13 4 -16 0 -2 -5 -2 -2 -1 5
3 9 -1 10 -16 2 -11 -6 -20 -16 -20 -23 0 -7 4 -6 10 3 9 14 14 7 11 -13 -1
-4 8 -3 18 3 14 7 22 7 27 -2 4 -7 3 -8 -5 -4 -17 11 -25 -22 -10 -41 8 -9 10
-14 4 -12 -5 3 -18 -2 -27 -13 -20 -20 -16 -23 12 -8 13 7 21 7 26 -2 4 -7 3
-8 -5 -4 -17 11 -25 -22 -10 -41 8 -9 9 -14 2 -10 -6 4 -13 4 -16 0 -2 -5 -2
-2 0 5 1 7 -1 10 -6 7 -6 -3 -9 -14 -8 -24 1 -15 5 -17 18 -10 12 6 20 5 25
-3 4 -7 3 -8 -5 -4 -17 11 -25 -22 -10 -41 8 -9 10 -14 4 -12 -5 3 -18 -2 -27
-13 -20 -20 -16 -23 12 -8 13 7 21 7 26 -2 4 -7 3 -8 -5 -4 -17 11 -25 -22
-10 -41 10 -12 10 -15 2 -9 -8 4 -13 1 -13 -9 0 -10 5 -13 13 -9 7 4 9 3 4 -2
-5 -5 -14 -9 -20 -9 -7 0 -12 -9 -12 -20 0 -11 -6 -25 -15 -32 -8 -6 -12 -15
-7 -19 4 -4 7 -2 7 5 0 7 5 9 10 6 10 -6 13 2 13 35 0 9 9 16 19 16 17 0 17
-2 4 -11 -12 -9 -13 -14 -3 -25 8 -8 8 -11 1 -7 -14 8 -27 -20 -14 -28 4 -3
10 0 12 7 3 8 7 6 11 -4 4 -13 1 -16 -14 -13 -10 2 -19 0 -19 -6 0 -5 5 -9 10
-9 6 0 10 -5 10 -11 0 -8 -5 -7 -15 1 -9 7 -13 20 -10 29 5 12 3 13 -5 5 -9
-9 -9 -18 0 -35 7 -13 9 -21 5 -17 -12 11 -35 -11 -29 -27 7 -17 -12 -29 -22
-14 -4 8 -3 9 4 5 7 -4 12 -3 12 3 0 15 -18 23 -25 11 -4 -7 -12 -7 -25 0 -23
12 -33 13 -26 2 3 -5 -2 -9 -10 -9 -9 0 -13 6 -10 14 3 8 2 12 -3 8 -5 -3 -12
1 -15 7 -3 7 -4 0 -1 -17 3 -16 2 -25 -2 -20 -4 6 -16 11 -25 12 -37 2 -39 3
-29 21 7 14 6 18 -9 18 -10 0 -18 -5 -17 -10 1 -6 -9 -12 -22 -14 -13 -2 -21
0 -17 6 7 11 -19 10 -30 -1 -4 -4 -14 -1 -23 6 -14 10 -14 10 -3 -5 7 -9 21
-15 30 -13 9 1 24 -1 33 -6 10 -5 21 -3 27 3 9 9 12 9 12 0 0 -7 -5 -12 -11
-12 -5 0 -7 -6 -3 -12 6 -9 3 -9 -9 0 -9 8 -21 11 -26 8 -5 -4 -13 -2 -16 4
-5 8 -11 7 -21 -1 -8 -6 -17 -9 -21 -5 -3 3 0 6 8 6 11 0 11 2 -1 10 -19 12
-33 13 -26 2 3 -5 -1 -9 -9 -9 -9 0 -14 7 -13 15 2 8 -5 16 -14 17 -14 3 -16
0 -8 -15 16 -30 11 -36 -7 -10 -10 14 -17 29 -15 33 1 5 -2 6 -8 2 -8 -5 -8
-11 0 -20 7 -8 7 -16 2 -19 -6 -3 -13 1 -16 10 -4 9 -9 14 -13 11 -3 -4 -12
-2 -19 4 -17 14 -35 3 -27 -17 4 -11 9 -12 19 -3 9 7 14 8 14 1 0 -14 -28 -23
-35 -12 -9 15 -27 12 -20 -2 4 -7 0 -5 -9 6 -9 11 -21 16 -32 12 -11 -4 -15
-2 -11 7 3 7 -4 19 -14 25 -10 7 -19 19 -19 27 0 8 -5 15 -11 15 -11 0 -4 -15
19 -43 14 -16 14 -17 0 -12 -20 8 -41 52 -28 60 6 4 14 4 19 1 5 -3 11 3 14
14 5 21 -15 44 -29 32 -7 -6 4 11 24 38 2 3 2 -4 0 -14 -1 -10 2 -21 7 -22 12
-5 13 65 2 86 -5 8 0 6 10 -6 l19 -21 10 22 c6 12 10 38 9 58 -2 42 -2 43 16
20 8 -9 9 -14 2 -10 -13 8 -12 -18 2 -30 4 -4 5 -3 1 4 -3 6 -2 14 4 18 7 4 7
12 0 25 -7 13 -6 21 5 30 8 7 12 16 9 21 -3 5 2 6 11 3 8 -4 21 -1 29 5 7 6
15 10 17 8 3 -1 -4 6 -14 16 -22 19 -15 22 15 6 15 -8 19 -8 14 0 -4 6 0 14 8
17 9 3 16 11 16 17 0 5 -9 2 -20 -8 -11 -10 -20 -15 -20 -12 0 4 0 10 0 15 0
4 6 7 13 7 6 0 11 8 11 18 -2 24 3 21 20 -10 l15 -28 -2 29 c-1 18 3 30 13 33
13 4 13 3 0 -6 -11 -8 -12 -11 -2 -11 7 0 11 -4 8 -8 -2 -4 4 -8 15 -8 16 0
17 3 7 11 -18 14 -19 55 -2 48 8 -3 11 -10 7 -17 -3 -6 3 -3 14 7 11 9 23 15
26 12 4 -3 5 -2 3 1 -2 3 9 19 25 37 21 22 25 33 16 39 -9 6 -9 8 0 8 21 0 25
-21 7 -36 -18 -14 -18 -15 2 -5 12 6 24 8 27 4 3 -3 4 7 1 21 -4 23 -3 25 10
14 7 -7 12 -15 11 -18 -2 -3 6 -6 17 -6 l20 0 -20 14 c-12 8 -18 20 -15 28 4
12 8 12 20 -3 13 -16 14 -16 9 -1 -3 12 -1 15 9 12 8 -3 13 -11 11 -17 -1 -7
-1 -9 1 -4 3 4 9 7 14 7 6 0 7 -5 3 -12 -5 -7 -3 -8 5 -3 9 5 10 10 2 18 -13
13 -15 30 -2 22 5 -3 12 -1 16 5 4 6 11 8 16 4 5 -3 7 -10 3 -15 -3 -5 -10 -6
-16 -3 -7 4 -8 2 -4 -5 6 -9 11 -9 22 0 11 9 14 9 14 -1 0 -8 3 -11 6 -8 3 4
1 16 -5 27 -10 17 -9 20 4 15 8 -4 15 -10 15 -15z m78 -4 c-3 -3 -9 2 -12 12
-6 14 -5 15 5 6 7 -7 10 -15 7 -18z m295 15 c3 6 4 5 3 -1 -3 -18 -34 -19 -40
-3 -4 11 -2 12 13 4 13 -7 21 -7 24 0z m53 -26 c-3 -8 -1 -14 5 -14 6 0 7 -6
3 -12 -6 -10 -4 -10 8 0 14 11 18 10 30 -6 17 -24 41 -33 59 -20 11 8 11 9 -3
5 -18 -6 -68 27 -68 45 0 6 12 -2 27 -18 17 -19 28 -24 31 -16 3 10 7 10 18 1
12 -10 12 -15 -3 -33 -14 -17 -15 -18 -2 -8 23 17 59 23 56 9 -1 -6 4 -11 12
-12 8 0 15 -8 17 -18 1 -9 -2 -15 -7 -11 -5 3 -7 9 -5 13 3 4 -1 8 -9 8 -10 0
-12 -4 -5 -12 5 -7 6 -15 2 -19 -4 -4 -2 -7 3 -5 6 1 18 -1 28 -6 14 -6 15
-10 5 -24 -10 -13 -10 -14 2 -4 18 16 41 -2 32 -25 -5 -16 -5 -16 11 0 18 17
22 30 9 25 -4 -1 -19 7 -34 19 -19 15 -24 25 -17 35 7 11 9 11 9 -4 0 -10 5
-15 10 -12 6 4 9 1 8 -6 -2 -7 3 -13 10 -14 8 0 19 -8 26 -17 7 -10 17 -14 21
-10 5 4 5 1 1 -6 -4 -7 -11 -10 -16 -7 -5 3 -11 2 -14 -3 -3 -5 1 -9 9 -10 8
-1 22 -3 30 -4 8 -1 15 -5 15 -10 0 -5 5 -6 10 -3 6 4 10 3 9 -2 -4 -21 2 -34
13 -27 6 4 8 3 4 -4 -3 -6 -2 -14 4 -17 8 -5 7 -11 -1 -21 -10 -12 -9 -13 5
-8 12 5 15 2 9 -12 -4 -10 -2 -15 3 -11 15 9 34 -7 39 -31 2 -12 6 -26 10 -31
3 -5 0 -13 -6 -17 -8 -5 -9 -3 -4 6 5 9 4 11 -4 6 -9 -6 -9 -11 0 -22 8 -10 8
-14 0 -14 -6 0 -11 -5 -11 -11 0 -5 4 -8 9 -4 5 3 17 -2 25 -11 17 -17 22 -39
7 -29 -5 3 -13 1 -16 -5 -4 -6 -1 -9 7 -8 8 2 12 -4 10 -14 -2 -10 2 -18 7
-18 5 0 8 9 6 19 -3 14 1 18 12 14 12 -5 12 -7 1 -14 -9 -6 -9 -9 -1 -9 7 0
17 -10 23 -22 10 -21 10 -22 -4 -5 -12 15 -18 17 -33 7 -12 -8 -13 -10 -2 -7
9 3 21 -4 28 -15 7 -11 8 -17 2 -14 -5 4 -12 2 -16 -4 -3 -5 -1 -10 4 -10 6 0
11 -5 11 -11 0 -5 -4 -7 -10 -4 -5 3 -10 0 -10 -7 0 -10 -3 -9 -10 2 -5 9 -5
19 1 26 11 13 -7 31 -18 20 -4 -3 -1 -6 6 -6 7 0 9 -5 6 -10 -5 -8 -12 -7 -23
2 -13 11 -12 8 2 -14 19 -29 6 -49 -19 -28 -8 7 -30 12 -49 13 -19 0 -33 4
-30 8 5 9 -23 6 -32 -4 -4 -3 -14 -2 -24 3 -12 6 -17 5 -17 -4 0 -13 25 -15
45 -2 7 4 15 1 18 -9 5 -12 10 -13 20 -4 8 6 19 7 28 2 13 -7 12 -11 -7 -22
-20 -13 -21 -13 -8 2 8 10 9 17 3 17 -6 0 -14 -5 -18 -11 -4 -8 -9 -8 -17 0
-15 15 -30 14 -21 -1 5 -9 2 -9 -9 1 -14 11 -20 11 -34 0 -11 -10 -14 -10 -9
-1 5 8 0 12 -14 12 -12 0 -19 -4 -15 -9 3 -5 1 -12 -4 -16 -6 -3 -8 3 -6 15 2
11 -1 20 -6 20 -6 0 -8 4 -4 9 3 5 0 13 -7 17 -7 4 -10 4 -6 -1 4 -4 2 -15 -5
-23 -9 -13 -9 -14 1 -8 18 11 15 1 -5 -15 -11 -10 -14 -10 -9 -1 5 8 0 12 -14
12 -12 0 -19 -4 -15 -9 3 -5 1 -12 -4 -15 -10 -7 -9 13 1 30 8 13 -28 12 -39
-1 -5 -4 -2 -5 5 -1 18 10 15 1 -5 -15 -11 -10 -14 -10 -9 -1 5 8 0 12 -14 12
-12 0 -19 -4 -15 -9 3 -5 1 -12 -4 -15 -11 -7 -9 13 2 31 6 9 3 11 -9 6 -13
-5 -16 -3 -11 10 9 24 0 21 -14 -4 -8 -15 -8 -19 0 -15 17 11 13 0 -6 -15 -11
-10 -14 -10 -9 -1 5 8 0 12 -13 12 -14 0 -19 -5 -15 -15 4 -8 -8 -3 -25 12
-30 26 -43 52 -19 37 7 -4 8 -3 4 5 -13 20 -26 1 -20 -27 6 -25 5 -26 -8 -8
-10 13 -17 15 -22 8 -4 -7 -2 -12 5 -12 7 0 10 -3 6 -6 -3 -3 -11 -3 -17 1 -8
5 -6 12 5 25 16 18 16 20 -5 42 -13 14 -20 17 -18 8 2 -8 10 -20 18 -27 13
-11 13 -12 -2 -13 -10 0 -18 6 -18 13 0 8 -4 7 -10 -3 -6 -9 -10 -10 -10 -3 0
6 5 15 11 18 6 5 4 12 -8 21 -17 13 -17 14 1 8 16 -6 17 -5 6 16 -8 15 -8 20
-1 16 7 -5 10 0 8 13 -4 28 -17 39 -18 15 0 -11 -3 -14 -6 -6 -3 7 1 20 8 28
10 13 10 17 -2 25 -10 6 -11 9 -1 9 7 0 10 5 7 11 -4 6 3 13 14 16 20 5 20 7
5 18 -13 9 -14 14 -4 20 7 4 16 2 22 -6 8 -12 9 -11 5 1 -2 9 -14 14 -27 12
-18 -2 -21 1 -15 15 4 10 8 26 9 36 0 10 7 22 15 26 10 7 11 12 1 27 -9 16
-11 16 -6 2 3 -10 1 -20 -5 -24 -16 -9 -22 3 -11 22 6 11 7 27 1 42 -6 15 -5
21 1 17 8 -5 8 16 0 45 -1 3 -6 -4 -11 -15 l-9 -20 3 20 c2 11 9 19 15 18 7
-2 12 2 12 8 0 5 5 7 10 4 6 -3 10 -1 10 5 0 7 -6 10 -13 7 -8 -3 -20 -1 -28
4 -8 5 -9 9 -3 9 13 0 12 38 0 59 -6 10 -5 12 3 7 6 -4 14 0 17 8 8 20 21 21
21 1 0 -8 -5 -11 -10 -8 -6 4 -7 1 -2 -7 6 -9 4 -11 -5 -5 -8 5 -11 4 -6 -3 9
-15 39 -3 32 13 -7 20 11 40 26 28 14 -12 57 -8 72 7 13 13 29 1 22 -16z
m-653 -64 c-3 -12 -8 -19 -11 -16 -5 6 5 36 12 36 2 0 2 -9 -1 -20z m-390 -45
c2 -14 2 -23 -1 -20 -3 2 -10 0 -17 -5 -13 -11 -14 17 -1 38 10 17 13 15 19
-13z m367 21 c0 -2 -7 -9 -15 -16 -13 -11 -14 -10 -9 4 5 14 24 23 24 12z
m-150 -140 c0 -3 -4 -8 -10 -11 -5 -3 -10 -1 -10 4 0 6 5 11 10 11 6 0 10 -2
10 -4z m-345 -96 c3 -5 1 -10 -4 -10 -6 0 -11 5 -11 10 0 6 2 10 4 10 3 0 8
-4 11 -10z m1836 -7 c-11 -5 -11 -7 0 -14 8 -5 9 -9 3 -9 -6 0 -16 6 -22 13
-8 10 -6 13 11 14 12 0 16 -1 8 -4z m-1581 -39 c0 -8 -19 -13 -24 -6 -3 5 1 9
9 9 8 0 15 -2 15 -3z m1350 -39 c0 -8 -4 -15 -8 -15 -5 0 -9 7 -9 15 0 8 4 15
9 15 4 0 8 -7 8 -15z m17 -27 c-3 -8 -6 -5 -6 6 -1 11 2 17 5 13 3 -3 4 -12 1
-19z m-1662 -8 c-3 -5 -1 -10 4 -10 6 0 11 -5 11 -11 0 -8 -5 -8 -15 1 -13 11
-12 30 1 30 3 0 2 -4 -1 -10z m1690 -20 c3 -6 -1 -7 -9 -4 -18 7 -21 14 -7 14
6 0 13 -4 16 -10z m-1445 -26 c0 -8 -19 -13 -24 -6 -3 5 1 9 9 9 8 0 15 -2 15
-3z m-556 -116 c-3 -4 -9 -8 -15 -8 -5 0 -9 4 -9 8 0 5 7 9 15 9 8 0 12 -4 9
-9z m1166 6 c0 -8 -19 -13 -24 -6 -3 5 1 9 9 9 8 0 15 -2 15 -3z m1240 -10 c0
-2 -7 -4 -15 -4 -8 0 -15 4 -15 10 0 5 7 7 15 4 8 -4 15 -8 15 -10z m-1803
-10 c-3 -3 -12 -4 -19 -1 -8 3 -5 6 6 6 11 1 17 -2 13 -5z m2239 -79 c1 -8 -4
-11 -12 -8 -15 6 -18 16 -7 26 8 9 16 1 19 -18z m-3126 -24 c0 -5 -7 -12 -16
-15 -14 -5 -15 -4 -4 9 14 17 20 19 20 6z m3109 -43 c-5 -10 -12 -18 -14 -18
-2 0 -3 8 -2 18 0 10 7 19 13 19 9 0 10 -5 3 -19z m-3036 -31 c-5 -8 -8 -7
-11 1 -2 7 -9 9 -14 6 -7 -4 -8 -2 -4 4 4 6 13 9 21 6 8 -4 12 -11 8 -17z
m327 -16 c0 -14 -2 -14 -10 -1 -9 13 -10 13 -10 0 0 -13 -2 -13 -9 0 -6 8 -8
17 -5 22 8 12 34 -3 34 -21z m640 0 c0 -14 -2 -14 -10 -1 -7 11 -10 11 -10 2
0 -8 -5 -10 -12 -6 -9 6 -9 9 0 12 7 2 10 8 7 13 -4 5 1 6 9 3 9 -3 16 -14 16
-23z m38 4 c-3 -3 -9 2 -12 12 -6 14 -5 15 5 6 7 -7 10 -15 7 -18z m130 -1
c-2 10 4 21 12 23 10 3 11 2 4 -4 -7 -5 -8 -16 -3 -28 6 -16 8 -16 8 -3 1 17
24 19 38 3 4 -4 3 -5 -4 -1 -16 9 -28 -13 -14 -27 9 -9 11 -8 5 6 -4 12 -2 17
7 15 8 -2 13 4 13 13 -1 11 7 15 25 14 14 -1 33 3 41 9 8 6 6 1 -4 -12 -15
-17 -22 -19 -33 -11 -11 9 -12 9 -7 -4 3 -8 12 -18 20 -21 8 -3 12 -2 9 3 -8
13 9 21 49 25 26 3 33 0 29 -10 -3 -8 -9 -14 -15 -14 -5 0 -7 4 -4 9 4 5 0 8
-6 7 -21 -3 -38 -16 -38 -29 0 -7 5 -4 11 6 10 17 13 16 47 -9 19 -15 32 -22
28 -16 -4 7 -1 12 7 12 10 0 13 -7 10 -19 -3 -13 -11 -18 -21 -14 -12 3 -13 2
-5 -4 7 -5 11 -19 8 -31 -2 -14 0 -20 7 -16 6 4 9 1 6 -7 -3 -8 -10 -14 -15
-14 -6 0 -15 -4 -20 -9 -4 -5 -3 -6 3 -3 14 8 37 -16 27 -27 -4 -4 0 -4 9 -1
9 4 19 1 23 -5 3 -6 1 -9 -6 -8 -6 2 -13 -2 -16 -9 -3 -8 3 -11 17 -8 11 2 18
0 15 -5 -3 -5 -14 -7 -25 -5 -13 2 -24 -4 -31 -17 -6 -11 -7 -18 -2 -15 6 4
20 -8 34 -26 l23 -32 -25 17 c-20 13 -26 13 -26 3 0 -8 3 -12 7 -10 3 2 7 -14
7 -36 2 -37 1 -39 -20 -28 l-22 10 21 -18 c11 -10 19 -28 18 -40 -1 -18 2 -21
17 -13 12 7 20 6 25 -2 4 -7 3 -8 -5 -4 -15 10 -26 -21 -12 -37 8 -10 7 -14
-4 -14 -8 0 -12 4 -9 9 3 4 -3 5 -12 1 -11 -4 -13 -8 -6 -11 7 -2 12 -8 12
-13 0 -6 -5 -7 -12 -3 -6 4 -8 3 -4 -4 3 -6 2 -13 -4 -17 -5 -3 -10 -11 -10
-17 0 -5 8 0 18 13 18 21 58 37 46 18 -3 -5 -9 -7 -13 -5 -4 3 -15 -11 -26
-30 -10 -19 -23 -34 -28 -34 -6 0 -7 -3 -3 -7 4 -4 18 6 32 22 14 17 23 25 20
18 -4 -6 -3 -13 1 -16 5 -2 2 -2 -4 -1 -7 2 -13 -1 -13 -6 0 -6 5 -10 10 -10
6 0 10 -5 10 -11 0 -8 -5 -7 -16 1 -13 11 -16 10 -21 -9 -4 -14 -8 -18 -13
-11 -4 6 -14 12 -23 14 -9 1 -25 10 -37 21 -11 10 -20 13 -20 7 0 -7 5 -12 11
-12 8 0 7 -6 -2 -17 -12 -14 -12 -16 0 -8 10 5 12 4 7 -4 -9 -14 -26 -5 -26
15 0 8 -5 14 -11 14 -5 0 -7 5 -3 12 4 7 3 8 -5 4 -8 -6 -9 -12 -2 -20 8 -9 7
-13 -4 -13 -8 0 -15 7 -15 16 0 14 -2 14 -10 1 -8 -13 -10 -12 -10 3 0 9 -5
17 -11 17 -5 0 -7 6 -3 13 4 6 4 9 -1 5 -9 -9 -37 11 -30 21 10 17 -39 3 -53
-15 -12 -16 -14 -16 -9 -1 4 9 2 17 -3 17 -6 0 -10 9 -10 20 0 11 -5 20 -11
20 -5 0 -7 5 -3 12 4 7 3 8 -5 4 -9 -6 -9 -11 -1 -21 8 -10 8 -15 -1 -21 -8
-5 -9 -3 -5 5 6 8 2 11 -10 9 -12 -2 -19 4 -21 17 l-3 20 10 -20 c10 -20 10
-20 7 0 -1 14 -10 20 -32 21 -37 2 -38 2 -30 14 5 8 12 7 23 -2 15 -11 15 -11
5 2 -6 8 -11 18 -10 22 1 3 -2 10 -7 15 -5 4 -7 3 -3 -2 3 -6 -3 -16 -14 -23
-11 -7 -19 -8 -19 -2 0 5 5 10 10 10 14 0 13 16 -3 32 -42 44 -65 80 -61 93 6
15 -7 21 -20 8 -3 -4 -14 -8 -24 -9 -15 -3 -15 -2 1 11 11 7 14 16 8 19 -5 4
-12 2 -16 -4 -4 -6 -11 -8 -16 -4 -5 3 -7 10 -3 15 3 5 10 7 15 4 5 -4 9 -1 9
4 0 6 -7 11 -15 11 -8 0 -15 4 -15 10 0 5 6 7 14 4 8 -3 17 0 22 7 4 8 3 10
-5 5 -6 -4 -19 -2 -28 6 -9 7 -14 8 -11 3 4 -6 3 -17 -1 -24 -6 -9 -8 -4 -8
13 0 14 3 26 7 26 4 0 11 7 14 16 5 14 4 15 -9 4 -11 -9 -15 -9 -15 -1 0 7 -5
9 -10 6 -6 -4 -9 -1 -8 7 2 7 -3 12 -10 10 -8 -1 -11 2 -7 8 4 7 12 7 25 0 13
-7 21 -5 31 8 13 15 12 16 -3 3 -17 -12 -23 -9 -19 12 1 5 -9 6 -21 2 -18 -5
-20 -4 -8 4 11 8 12 11 2 11 -10 0 -10 4 2 15 23 23 10 48 -17 34 -22 -10 -22
-10 -2 6 11 9 19 26 18 38 -2 20 -2 20 5 3 6 -14 11 -16 16 -8 4 7 5 15 3 20
-3 4 6 8 19 8 17 1 24 -3 22 -13 -2 -8 8 -22 22 -30 16 -10 20 -11 10 -2 -22
20 -19 41 8 45 14 3 22 -1 22 -11 0 -8 -5 -15 -11 -15 -5 0 -8 4 -5 8 3 5 -1
9 -9 9 -12 0 -12 -4 2 -19 10 -11 19 -15 21 -9 2 6 8 9 13 6 5 -4 6 0 3 8 -3
8 0 18 7 23 7 4 10 3 6 -3 -6 -10 11 -23 40 -29 7 -1 17 5 22 14 9 16 10 15
17 -1 5 -13 9 -15 14 -7 4 7 19 13 34 13 14 0 23 3 21 8 -3 4 4 6 15 4 11 -2
20 1 20 7 0 5 9 0 20 -13 18 -21 20 -22 18 -5z m620 2 c14 5 14 4 2 -4 -8 -6
-18 -8 -22 -6 -4 3 -8 0 -8 -5 0 -14 6 -14 31 -1 14 8 25 6 44 -6 23 -15 25
-15 19 0 -3 9 -10 14 -14 11 -4 -3 -13 2 -20 10 -10 12 -8 13 9 10 12 -2 21 1
21 7 0 7 7 3 15 -8 8 -10 15 -15 15 -10 0 5 7 3 15 -4 13 -11 14 -10 9 3 -4
11 0 14 13 12 10 -2 19 -4 21 -5 10 -9 46 -1 44 9 -1 7 2 10 8 6 6 -3 8 -11 5
-16 -4 -5 3 -9 14 -9 10 0 22 6 25 13 3 6 4 3 3 -8 -2 -11 -9 -19 -18 -17 -12
3 -12 1 0 -10 11 -10 14 -10 18 0 3 6 9 10 14 7 5 -4 6 0 3 8 -3 8 0 18 7 23
8 4 10 3 5 -4 -4 -7 -1 -12 8 -12 9 0 16 -6 16 -12 0 -9 4 -8 10 2 13 20 12
30 -1 30 -5 0 -7 -5 -3 -12 5 -7 3 -8 -5 -3 -9 5 -9 11 -3 17 16 16 33 -1 27
-25 -2 -12 -2 -16 1 -9 3 6 11 9 16 6 6 -4 8 -2 4 4 -3 6 -1 14 5 18 8 4 9 3
5 -4 -4 -7 -3 -12 3 -12 6 0 8 -7 5 -15 -4 -8 -10 -13 -14 -10 -5 3 -11 1 -14
-4 -4 -5 1 -8 10 -7 8 1 20 9 25 17 5 8 9 10 9 6 0 -5 5 -5 12 -1 8 5 6 11 -7
20 -16 12 -16 13 3 11 11 0 20 -4 20 -7 0 -3 0 -12 1 -20 1 -13 2 -13 11 0 11
17 13 10 4 -13 -3 -9 -14 -13 -27 -11 -22 5 -22 5 0 -5 16 -7 21 -16 16 -28
-3 -10 -3 -15 1 -11 4 3 9 14 10 24 2 10 7 19 13 21 11 4 27 -26 18 -35 -3 -3
-5 0 -5 7 0 7 -4 9 -10 6 -14 -8 -13 -36 1 -33 6 2 14 -4 16 -12 4 -13 3 -13
-6 0 -10 14 -16 7 -12 -13 1 -5 -3 -6 -9 -2 -6 3 -8 10 -6 14 3 4 -1 8 -9 8
-8 0 -13 -3 -10 -5 3 -3 0 -11 -6 -19 -9 -9 -8 -17 0 -27 9 -10 8 -16 -4 -26
-9 -7 -14 -19 -11 -26 3 -7 1 -16 -4 -19 -4 -3 -10 0 -12 7 -3 8 -6 6 -10 -4
-4 -9 -2 -15 5 -14 24 3 36 17 30 34 -5 14 -3 15 7 5 11 -10 11 -16 -3 -31 -9
-10 -14 -22 -10 -26 4 -4 -1 -4 -12 0 -16 6 -18 4 -8 -6 19 -20 -4 -45 -25
-28 -13 11 -14 10 -3 -9 6 -13 9 -23 5 -23 -3 0 0 -8 7 -17 13 -16 12 -17 -3
-4 -16 12 -22 9 -19 -12 0 -4 -2 -6 -6 -6 -21 3 -24 -3 -12 -18 12 -16 12 -17
-2 -6 -9 7 -20 9 -25 5 -5 -4 1 5 14 19 20 23 21 27 7 33 -10 3 -14 2 -10 -5
9 -14 -15 -40 -29 -32 -6 3 -8 3 -4 -2 11 -11 -12 -36 -26 -28 -8 4 -7 2 1 -7
12 -13 7 -40 -8 -40 -4 0 -5 8 -2 18 4 10 -3 6 -19 -10 -14 -15 -29 -24 -33
-20 -5 4 -5 1 -1 -6 6 -9 11 -10 21 -2 9 8 14 6 19 -5 3 -9 2 -13 -4 -10 -19
12 -32 -6 -18 -23 11 -15 11 -15 -4 -4 -13 10 -17 10 -22 0 -3 -7 -3 -2 0 12
4 18 3 21 -4 11 -6 -8 -15 -10 -23 -6 -11 6 -12 5 -1 -6 16 -17 15 -30 -2 -23
-8 3 -17 0 -21 -6 -3 -6 -1 -9 6 -8 6 2 13 -3 14 -10 2 -7 1 -8 -2 -2 -3 8 -9
7 -19 -1 -8 -6 -25 -9 -39 -6 -25 4 -25 4 -9 -14 9 -11 14 -19 11 -19 -17 0
-22 3 -19 11 1 5 -2 9 -7 9 -5 0 -18 3 -28 6 -17 6 -17 6 1 -8 10 -8 16 -21
13 -29 -4 -9 -6 -7 -6 6 -1 17 -3 17 -11 5 -6 -10 -10 -11 -10 -2 0 6 -5 12
-11 12 -5 0 -7 -4 -4 -10 3 -5 -1 -10 -10 -10 -9 0 -14 4 -11 8 2 4 -4 8 -14
8 -10 0 -16 -4 -14 -8 8 -13 -11 -9 -26 5 -12 10 -12 9 -1 -6 8 -9 21 -15 30
-12 34 10 40 -10 9 -28 -26 -15 -29 -15 -18 -2 13 16 6 17 -50 6 -3 -1 2 -6
10 -11 9 -6 10 -10 3 -10 -6 0 -15 5 -19 11 -4 8 -9 7 -16 -2 -8 -11 -9 -10
-4 4 5 15 -3 21 -25 19 -3 -1 -6 4 -6 11 -1 24 -8 42 -23 54 -13 11 -12 12 5
6 17 -6 18 -5 7 9 -10 12 -9 18 3 28 12 10 15 10 15 0 0 -8 3 -10 6 -7 4 4 2
12 -4 20 -7 8 -7 18 -2 27 12 19 12 30 2 30 -5 0 -9 -7 -10 -15 -1 -8 -3 -22
-4 -30 -1 -8 -6 -15 -11 -15 -5 0 -6 8 -2 18 12 28 8 61 -10 75 -5 5 0 5 13 2
23 -7 23 -6 8 24 -21 40 -20 44 7 36 17 -5 19 -4 7 4 -8 6 -12 11 -7 11 4 0 0
15 -9 33 l-17 32 23 -20 c13 -11 20 -15 17 -8 -4 6 -3 14 3 18 5 3 10 11 10
18 0 6 -7 2 -16 -9 -13 -16 -15 -16 -10 -2 3 10 0 20 -6 24 -7 4 -8 3 -4 -4 4
-7 2 -12 -4 -12 -8 0 -9 7 -5 18 4 9 7 27 6 40 0 14 5 22 16 22 15 0 14 2 -3
15 -19 15 -19 15 1 9 20 -7 20 -7 0 9 -15 11 -22 12 -28 4 -6 -8 -7 -7 -4 3 2
8 12 15 23 15 13 0 19 8 21 28 1 15 -2 27 -7 27 -5 0 -7 -12 -4 -27 3 -20 2
-24 -5 -13 -5 8 -7 18 -5 22 3 4 1 8 -5 8 -11 0 -9 26 4 37 4 4 5 2 1 -4 -5
-8 -1 -13 9 -13 11 0 15 5 12 14 -8 19 17 53 27 37 4 -6 12 -9 17 -5 5 3 8 0
7 -7 -2 -7 5 -15 15 -17 9 -2 17 2 17 8 0 6 -4 8 -10 5 -5 -3 -10 -1 -10 5 0
7 6 10 14 7 8 -3 20 1 27 9 11 14 13 14 21 0 5 -9 16 -13 26 -10z m782 -23 c0
-17 -3 -17 -31 9 -19 16 -20 20 -5 14 14 -5 17 -3 12 11 -5 15 -4 15 9 -1 8
-11 15 -26 15 -33z m115 19 c-12 -12 -33 -10 -28 3 2 8 11 11 19 8 8 -3 12 -8
9 -11z m-1300 -12 c-3 -5 0 -10 7 -10 10 0 9 -3 -2 -9 -20 -13 -34 -2 -19 15
13 16 23 19 14 4z m1092 -42 c-3 -8 -6 -5 -6 6 -1 11 2 17 5 13 3 -3 4 -12 1
-19z m-1677 -12 c0 -3 -4 -8 -10 -11 -5 -3 -10 -1 -10 4 0 6 5 11 10 11 6 0
10 -2 10 -4z m626 -28 c5 -7 3 -8 -6 -3 -10 6 -12 4 -7 -8 3 -10 3 -17 -2 -17
-13 0 -20 11 -14 26 6 17 19 18 29 2z m1051 -13 c0 -8 -4 -15 -9 -15 -10 0
-11 14 -1 23 9 10 10 9 10 -8z m-270 -19 c-3 -8 -1 -17 6 -20 9 -3 9 -5 0 -5
-15 -1 -26 16 -18 29 9 15 18 12 12 -4z m-787 -36 c0 -5 -7 -7 -15 -4 -8 4
-12 10 -9 15 6 11 24 2 24 -11z m800 -4 c0 -2 -7 -7 -16 -10 -8 -3 -12 -2 -9
4 6 10 25 14 25 6z m-804 -84 c-3 -3 0 -12 6 -21 8 -10 4 -9 -10 3 -25 22 -29
38 -7 29 9 -3 13 -8 11 -11z m-509 -57 c0 -8 -4 -15 -9 -15 -10 0 -11 14 -1
23 9 10 10 9 10 -8z m-273 -36 c-3 -5 -10 -7 -15 -3 -5 3 -7 10 -3 15 3 5 10
7 15 3 5 -3 7 -10 3 -15z m789 15 c3 -3 3 -13 0 -21 -5 -12 -7 -12 -14 -1 -15
23 -4 40 14 22z m954 -6 c0 -7 2 -19 4 -27 2 -7 -1 -15 -8 -18 -10 -3 -12 26
-4 55 2 7 8 0 8 -10z m-1428 -37 c24 -30 28 -40 17 -44 -11 -4 -13 -1 -9 10 5
12 3 14 -8 8 -8 -5 -11 -4 -6 0 4 5 -3 15 -15 22 -13 7 -17 12 -10 13 7 0 10
5 7 10 -4 6 -16 8 -28 5 -17 -5 -19 -4 -7 4 22 16 26 14 59 -28z m-294 -1 c-3
-5 -13 -6 -21 -3 -12 4 -13 8 -3 14 15 9 32 2 24 -11z m765 -10 c0 -5 -5 -10
-11 -10 -5 0 -7 5 -4 10 3 6 8 10 11 10 2 0 4 -4 4 -10z m660 -10 c0 -5 -7 -7
-15 -4 -11 4 -13 2 -9 -9 3 -8 1 -17 -4 -21 -10 -6 -9 24 2 42 8 13 26 7 26
-8z m-1407 -16 c-4 -12 -8 -13 -14 -3 -9 15 -2 32 11 24 5 -3 6 -13 3 -21z
m747 2 c0 -3 -4 -8 -10 -11 -5 -3 -10 -1 -10 4 0 6 5 11 10 11 6 0 10 -2 10
-4z m-726 -38 c-3 -5 5 -12 18 -17 13 -6 17 -10 9 -10 -22 -1 -50 29 -44 46 5
12 7 12 14 2 4 -7 5 -17 3 -21z m1327 -5 c13 -16 12 -17 -3 -4 -17 13 -22 21
-14 21 2 0 10 -8 17 -17z m-817 -122 c3 -4 -1 -8 -9 -8 -8 0 -15 6 -15 14 0
10 -5 11 -18 4 -15 -8 -18 -5 -20 15 l-2 25 30 -21 c16 -11 32 -24 34 -29z
m-354 -28 c0 -3 -7 -3 -15 1 -8 3 -15 0 -15 -6 0 -6 -3 -9 -6 -5 -11 10 6 26
21 20 8 -3 15 -7 15 -10z m495 -5 c5 4 5 1 1 -5 -4 -7 -2 -13 3 -13 6 0 11 -5
11 -10 0 -14 -38 11 -45 29 -4 11 -2 11 8 3 8 -7 18 -8 22 -4z m-305 -143 c0
-2 -6 -8 -13 -14 -10 -8 -14 -7 -14 2 0 8 6 14 14 14 7 0 13 -1 13 -2z m37
-30 c0 -8 -4 -12 -9 -9 -4 3 -8 9 -8 15 0 5 4 9 8 9 5 0 9 -7 9 -15z m761 -51
c2 -1 -5 -5 -15 -8 -9 -4 -14 -4 -10 0 4 4 1 14 -6 23 -11 14 -10 15 8 1 11
-8 21 -15 23 -16z m-418 -149 c0 -8 -4 -15 -10 -15 -5 0 -7 7 -4 15 4 8 8 15
10 15 2 0 4 -7 4 -15z m2 -90 c-8 -16 -9 -16 -15 -1 -4 10 -3 15 3 11 6 -3 10
-1 10 6 0 7 3 10 6 6 3 -3 2 -13 -4 -22z m-12 -45 c-13 -8 -13 -10 -1 -10 8 0
12 -3 8 -6 -3 -3 -11 -3 -17 1 -8 5 -8 11 1 21 6 8 14 12 18 9 3 -3 -1 -10 -9
-15z m205 -148 c-3 -3 -11 0 -18 7 -9 10 -8 11 6 5 10 -3 15 -9 12 -12z m-185
-38 c0 -8 -19 -13 -24 -6 -3 5 1 9 9 9 8 0 15 -2 15 -3z m17 -103 c10 -16 9
-20 -3 -25 -9 -3 -12 -2 -9 5 4 5 1 16 -5 24 -7 8 -8 15 -4 15 5 0 15 -9 21
-19z m113 -46 c0 -2 -6 -5 -13 -8 -8 -3 -14 1 -14 8 0 7 6 11 14 8 7 -3 13 -6
13 -8z"/>
<path d="M1603 2243 c-15 -5 -17 -23 -4 -23 5 0 11 7 15 15 3 8 4 15 3 14 -1
0 -8 -3 -14 -6z"/>
<path d="M1576 2162 c-2 -4 -1 -14 4 -22 7 -11 9 -9 7 8 -1 24 -3 26 -11 14z"/>
<path d="M1140 2150 c-9 -6 -10 -10 -3 -10 6 0 15 5 18 10 8 12 4 12 -15 0z"/>
<path d="M1101 2136 c-15 -17 -1 -28 19 -15 11 6 12 9 2 9 -7 0 -10 5 -7 10 9
15 -1 12 -14 -4z"/>
<path d="M1581 2104 c0 -11 3 -14 6 -6 3 7 2 16 -1 19 -3 4 -6 -2 -5 -13z"/>
<path d="M1115 2090 c3 -5 8 -10 11 -10 2 0 4 5 4 10 0 6 -5 10 -11 10 -5 0
-7 -4 -4 -10z"/>
<path d="M1603 2083 c-15 -5 -17 -23 -4 -23 5 0 11 7 15 15 3 8 4 15 3 14 -1
0 -8 -3 -14 -6z"/>
<path d="M1605 1999 c-4 -6 -5 -12 -2 -15 2 -3 7 2 10 11 7 17 1 20 -8 4z"/>
<path d="M1055 1991 c-3 -5 -2 -12 3 -15 5 -3 9 1 9 9 0 17 -3 19 -12 6z"/>
<path d="M1030 1971 c0 -6 4 -13 10 -16 6 -3 7 1 4 9 -7 18 -14 21 -14 7z"/>
<path d="M1581 1944 c0 -11 3 -14 6 -6 3 7 2 16 -1 19 -3 4 -6 -2 -5 -13z"/>
<path d="M1026 1888 c3 -5 10 -6 15 -3 13 9 11 12 -6 12 -8 0 -12 -4 -9 -9z"/>
<path d="M1010 1876 c0 -3 9 -10 20 -16 11 -6 20 -8 20 -6 0 3 -9 10 -20 16
-11 6 -20 8 -20 6z"/>
<path d="M1518 1840 c9 -24 25 -28 30 -8 2 9 0 8 -7 -2 -9 -13 -11 -13 -11 2
0 9 -4 20 -10 23 -6 4 -7 -2 -2 -15z"/>
<path d="M1570 1840 c-8 -5 -12 -12 -9 -15 4 -3 12 1 19 10 14 17 11 19 -10 5z"/>
<path d="M1060 1830 c8 -5 20 -10 25 -10 6 0 3 5 -5 10 -8 5 -19 10 -25 10 -5
0 -3 -5 5 -10z"/>
<path d="M1421 1827 c-8 -10 -7 -14 2 -14 8 0 14 6 14 14 0 7 -1 13 -2 13 -2
0 -8 -6 -14 -13z"/>
<path d="M1955 2420 c-3 -5 -2 -17 3 -26 8 -14 10 -12 10 9 0 29 -3 33 -13 17z"/>
<path d="M1890 2389 c0 -5 5 -7 10 -4 6 3 10 8 10 11 0 2 -4 4 -10 4 -5 0 -10
-5 -10 -11z"/>
<path d="M1824 2344 c0 -15 5 -20 14 -17 11 5 11 7 0 14 -10 7 -9 9 4 9 9 0
19 3 21 8 3 4 -5 7 -17 7 -16 0 -22 -6 -22 -21z"/>
<path d="M2107 2343 c-4 -8 9 -53 16 -53 5 0 1 50 -5 56 -3 3 -8 2 -11 -3z"/>
<path d="M1838 2263 c7 -3 16 -2 19 1 4 3 -2 6 -13 5 -11 0 -14 -3 -6 -6z"/>
<path d="M1839 2248 c-5 -18 -6 -38 -1 -34 7 8 12 36 6 36 -2 0 -4 -1 -5 -2z"/>
<path d="M2268 2193 c12 -20 48 -53 60 -53 4 1 -3 9 -15 19 -12 10 -20 21 -17
24 3 3 -4 11 -16 17 -19 10 -20 10 -12 -7z"/>
<path d="M1855 2149 c-4 -6 -5 -12 -2 -15 2 -3 7 2 10 11 7 17 1 20 -8 4z"/>
<path d="M2290 2130 c0 -5 5 -10 11 -10 5 0 7 5 4 10 -3 6 -8 10 -11 10 -2 0
-4 -4 -4 -10z"/>
<path d="M1827 2106 c-4 -10 -1 -13 9 -9 15 6 19 23 5 23 -5 0 -11 -7 -14 -14z"/>
<path d="M2342 2093 c-9 -4 -7 -10 8 -23 12 -11 16 -20 10 -23 -6 -3 -6 -5 1
-3 16 3 20 33 6 44 -7 5 -18 7 -25 5z"/>
<path d="M1825 1998 c1 -18 8 -33 16 -36 11 -3 11 -1 -1 7 -9 6 -10 11 -3 11
13 0 11 26 -3 40 -7 7 -10 0 -9 -22z"/>
<path d="M1838 1943 c7 -3 16 -2 19 1 4 3 -2 6 -13 5 -11 0 -14 -3 -6 -6z"/>
<path d="M1835 1919 c-4 -6 -5 -11 -4 -12 2 -2 13 -9 24 -17 19 -14 19 -14 2
6 -9 11 -14 24 -10 27 3 4 4 7 0 7 -3 0 -9 -5 -12 -11z"/>
<path d="M2066 1852 c-3 -5 1 -9 9 -9 8 0 12 4 9 9 -3 4 -7 8 -9 8 -2 0 -6 -4
-9 -8z"/>
<path d="M2108 1843 c6 -2 18 -2 25 0 6 3 1 5 -13 5 -14 0 -19 -2 -12 -5z"/>
<path d="M2360 1840 c0 -5 9 -14 20 -20 11 -6 20 -9 20 -8 0 2 -9 11 -20 21
-11 9 -20 13 -20 7z"/>
<path d="M1919 1829 c-7 -4 -5 -8 5 -12 8 -3 18 -2 21 4 4 5 10 7 15 4 5 -3
11 -2 14 3 6 10 -40 11 -55 1z"/>
<path d="M1037 1592 c-20 -21 -22 -32 -6 -32 5 0 7 5 3 11 -4 7 -1 10 7 7 8
-3 14 -10 14 -15 0 -6 3 -14 7 -18 9 -9 5 16 -5 33 -5 6 -5 17 -2 22 10 16 -1
11 -18 -8z"/>
<path d="M1314 1598 c-3 -5 -3 -12 0 -15 3 -4 6 0 7 8 0 8 4 6 9 -6 l9 -20 0
20 c1 17 3 18 12 5 8 -12 10 -12 7 -1 -5 17 -35 23 -44 9z"/>
<path d="M1275 1589 c-4 -6 -4 -13 -1 -16 3 -4 6 -1 6 6 0 7 5 9 12 5 7 -4 8
-3 4 4 -9 15 -13 15 -21 1z"/>
<path d="M1581 1184 c0 -11 3 -14 6 -6 3 7 2 16 -1 19 -3 4 -6 -2 -5 -13z"/>
<path d="M1575 1151 c-3 -5 -2 -12 3 -15 5 -3 9 1 9 9 0 17 -3 19 -12 6z"/>
<path d="M1555 1061 c-3 -5 -2 -12 3 -15 5 -3 9 1 9 9 0 17 -3 19 -12 6z"/>
<path d="M1857 1596 c-4 -10 -3 -14 2 -11 6 3 14 -3 20 -12 6 -10 11 -13 11
-7 0 5 -6 18 -13 28 -13 17 -14 18 -20 2z"/>
<path d="M1950 1599 c0 -5 5 -7 10 -4 6 3 10 8 10 11 0 2 -4 4 -10 4 -5 0 -10
-5 -10 -11z"/>
<path d="M2074 1592 c23 -26 23 -26 23 -7 0 8 -3 13 -5 10 -3 -3 -12 1 -21 7
-10 8 -9 4 3 -10z"/>
<path d="M2133 1595 c0 -8 4 -12 8 -9 4 2 9 -1 11 -7 2 -7 9 -10 15 -8 6 2 1
11 -11 21 -18 13 -23 13 -23 3z"/>
<path d="M2190 1590 c0 -5 5 -10 11 -10 5 0 7 5 4 10 -3 6 -8 10 -11 10 -2 0
-4 -4 -4 -10z"/>
<path d="M2015 1570 c3 -5 8 -10 11 -10 2 0 4 5 4 10 0 6 -5 10 -11 10 -5 0
-7 -4 -4 -10z"/>
<path d="M1861 1554 c0 -11 3 -14 6 -6 3 7 2 16 -1 19 -3 4 -6 -2 -5 -13z"/>
<path d="M1856 1477 c3 -10 9 -15 12 -12 3 3 0 11 -7 18 -10 9 -11 8 -5 -6z"/>
<path d="M1830 1390 c0 -5 5 -10 10 -10 6 0 10 5 10 10 0 6 -4 10 -10 10 -5 0
-10 -4 -10 -10z"/>
<path d="M2315 1350 c-2 -3 5 -7 16 -7 10 -1 19 2 19 6 0 9 -29 10 -35 1z"/>
<path d="M2313 1303 c9 -2 14 -9 11 -15 -4 -7 -2 -8 5 -4 15 10 4 26 -17 25
-15 -1 -15 -2 1 -6z"/>
<path d="M1828 1258 c5 -5 16 -8 23 -6 8 3 3 7 -10 11 -17 4 -21 3 -13 -5z"/>
<path d="M1850 1210 c0 -5 5 -10 11 -10 5 0 7 5 4 10 -3 6 -8 10 -11 10 -2 0
-4 -4 -4 -10z"/>
<path d="M1855 1149 c-4 -6 -5 -12 -2 -15 2 -3 7 2 10 11 7 17 1 20 -8 4z"/>
<path d="M2136 1148 c3 -5 10 -6 15 -3 13 9 11 12 -6 12 -8 0 -12 -4 -9 -9z"/>
<path d="M2093 1094 c-3 -8 -12 -13 -20 -10 -8 3 -11 2 -8 -3 10 -17 41 -8 41
11 0 22 -5 23 -13 2z"/>
<path d="M1827 1089 c7 -7 15 -10 18 -7 3 3 -2 9 -12 12 -14 6 -15 5 -6 -5z"/>
<path d="M1833 1055 c0 -8 4 -12 9 -9 4 3 8 9 8 15 0 5 -4 9 -8 9 -5 0 -9 -7
-9 -15z"/>
<path d="M1845 1031 c-6 -11 9 -23 19 -14 9 9 7 23 -3 23 -6 0 -12 -4 -16 -9z"/>
<path d="M1875 1010 c-3 -5 -1 -11 4 -14 5 -4 12 -2 16 4 4 6 12 7 18 4 7 -4
8 -3 4 1 -11 12 -36 15 -42 5z"/>
<path d="M1777 3289 c7 -7 15 -10 18 -7 3 3 -2 9 -12 12 -14 6 -15 5 -6 -5z"/>
<path d="M1803 3236 c1 -11 9 -21 17 -23 10 -3 11 -2 4 4 -6 4 -14 15 -17 23
-5 11 -6 9 -4 -4z"/>
<path d="M1596 3183 c-6 -14 -5 -15 5 -6 7 7 10 15 7 18 -3 3 -9 -2 -12 -12z"/>
<path d="M1815 3190 c-3 -5 -5 -10 -3 -11 29 -7 36 -5 31 7 -6 16 -19 18 -28
4z"/>
<path d="M1825 3111 c-6 -11 9 -23 19 -14 9 9 7 23 -3 23 -6 0 -12 -4 -16 -9z"/>
<path d="M1826 3031 c-3 -5 0 -14 7 -19 10 -8 13 -6 14 9 2 19 -11 26 -21 10z"/>
<path d="M1584 3000 c0 -13 4 -16 10 -10 7 7 7 13 0 20 -6 6 -10 3 -10 -10z"/>
<path d="M1831 2976 c-8 -10 -9 -16 -1 -21 6 -3 7 -11 4 -17 -4 -6 -2 -8 4 -5
5 4 9 15 8 25 -2 9 2 20 8 24 8 6 8 8 0 8 -6 0 -17 -6 -23 -14z"/>
<path d="M1827 2906 c-3 -8 -2 -18 4 -22 16 -9 22 2 11 21 -8 15 -10 16 -15 1z"/>
<path d="M1593 2821 c10 -12 9 -14 -8 -7 -16 6 -17 5 -8 -5 10 -10 15 -9 28 1
21 17 19 29 -4 27 -16 -1 -18 -4 -8 -16z"/>
<path d="M1840 2750 c-8 -5 -10 -10 -4 -10 6 0 16 -10 23 -22 9 -18 10 -18 5
-3 -3 11 -7 26 -7 33 0 6 -1 12 -1 12 -1 0 -8 -5 -16 -10z"/>
<path d="M1525 2730 c-3 -6 1 -7 9 -4 18 7 21 14 7 14 -6 0 -13 -4 -16 -10z"/>
<path d="M1870 2732 c0 -5 6 -16 13 -27 11 -14 16 -15 22 -5 5 9 4 11 -3 6
-11 -6 -16 6 -13 27 0 4 -3 7 -9 7 -5 0 -10 -4 -10 -8z"/>
<path d="M1976 2712 c-3 -5 1 -9 9 -9 8 0 12 4 9 9 -3 4 -7 8 -9 8 -2 0 -6 -4
-9 -8z"/>
<path d="M1393 2685 c0 -7 6 -11 14 -8 7 3 13 6 13 8 0 2 -6 5 -13 8 -8 3 -14
-1 -14 -8z"/>
<path d="M1370 2662 c6 -13 14 -21 18 -18 3 4 -2 14 -12 24 -18 16 -18 16 -6
-6z"/>
<path d="M1159 2588 c-6 -20 -6 -39 0 -42 4 -3 7 6 7 20 0 20 -4 32 -7 22z"/>
<path d="M1196 2582 c-3 -5 1 -9 9 -9 8 0 12 4 9 9 -3 4 -7 8 -9 8 -2 0 -6 -4
-9 -8z"/>
<path d="M2330 2520 c0 -5 9 -14 20 -20 11 -6 20 -9 20 -8 0 2 -9 11 -20 21
-11 9 -20 13 -20 7z"/>
<path d="M2469 2389 c-14 -28 1 -43 26 -26 14 11 15 16 5 22 -8 5 -11 4 -7 -2
4 -6 0 -13 -8 -17 -18 -6 -19 -1 -5 25 6 10 8 19 6 19 -3 0 -10 -9 -17 -21z"/>
<path d="M944 2359 c0 -13 3 -15 13 -7 7 6 13 12 13 13 0 2 -6 5 -13 8 -7 3
-13 -3 -13 -14z"/>
<path d="M2510 2346 c0 -2 8 -10 18 -17 15 -13 16 -12 3 4 -13 16 -21 21 -21
13z"/>
<path d="M863 2242 c-1 -22 0 -24 9 -8 6 10 6 22 2 26 -5 5 -10 -3 -11 -18z"/>
<path d="M836 2223 c-6 -14 -5 -15 5 -6 7 7 10 15 7 18 -3 3 -9 -2 -12 -12z"/>
<path d="M845 2202 c-5 -4 -16 -17 -22 -29 -10 -17 -10 -24 0 -29 6 -4 9 -4 5
1 -4 4 2 21 13 36 21 30 22 34 4 21z"/>
<path d="M2635 2149 c-4 -6 -5 -12 -2 -15 2 -3 7 2 10 11 7 17 1 20 -8 4z"/>
<path d="M760 2110 c-9 -6 -10 -10 -3 -10 6 0 15 5 18 10 8 12 4 12 -15 0z"/>
<path d="M2690 2016 c0 -2 7 -7 16 -10 8 -3 12 -2 9 4 -6 10 -25 14 -25 6z"/>
<path d="M2706 1948 c3 -5 10 -6 15 -3 13 9 11 12 -6 12 -8 0 -12 -4 -9 -9z"/>
<path d="M2755 1850 c-3 -5 -1 -10 4 -10 6 0 11 5 11 10 0 6 -2 10 -4 10 -3 0
-8 -4 -11 -10z"/>
<path d="M250 1835 c-7 -9 -10 -18 -6 -22 3 -3 6 -1 6 6 0 7 4 10 8 7 5 -3 9
1 9 9 0 19 -2 19 -17 0z"/>
<path d="M661 1843 c-1 -7 -9 -10 -18 -7 -16 5 -16 4 0 -6 21 -13 32 -8 24 12
-4 9 -6 9 -6 1z"/>
<path d="M2780 1834 c0 -8 -4 -13 -9 -9 -5 3 -12 1 -15 -4 -4 -5 2 -8 11 -7
16 3 33 36 19 36 -3 0 -6 -7 -6 -16z"/>
<path d="M2908 1843 c6 -2 18 -2 25 0 6 3 1 5 -13 5 -14 0 -19 -2 -12 -5z"/>
<path d="M3068 1843 c6 -2 18 -2 25 0 6 3 1 5 -13 5 -14 0 -19 -2 -12 -5z"/>
<path d="M3120 1830 c-9 -6 -10 -10 -3 -10 6 0 15 5 18 10 8 12 4 12 -15 0z"/>
<path d="M3199 1838 c-6 -21 -5 -38 1 -38 5 0 8 9 7 20 -1 17 -5 26 -8 18z"/>
<path d="M195 1819 c-4 -6 -5 -12 -2 -15 2 -3 7 2 10 11 7 17 1 20 -8 4z"/>
<path d="M217 1813 c-4 -3 -7 -11 -7 -17 0 -6 5 -5 12 2 6 6 9 14 7 17 -3 3
-9 2 -12 -2z"/>
<path d="M3226 1795 c4 -9 9 -13 12 -11 9 10 32 -16 25 -28 -4 -6 2 -4 13 4
29 22 30 24 12 17 -10 -3 -20 -2 -23 3 -3 5 0 10 7 13 7 2 6 3 -3 2 -9 -1 -23
2 -32 7 -13 7 -15 5 -11 -7z"/>
<path d="M124 1748 c-4 -7 -4 -10 1 -6 4 4 14 3 21 -3 8 -7 14 -6 20 2 4 8 3
9 -4 5 -7 -4 -12 -2 -12 3 0 15 -17 14 -26 -1z"/>
<path d="M154 1645 c-4 -8 -11 -12 -17 -8 -6 3 -7 1 -3 -6 4 -6 11 -9 16 -6 4
3 10 -1 13 -7 2 -7 4 -1 3 14 -1 32 -4 35 -12 13z"/>
<path d="M3229 1628 c-6 -20 -3 -45 7 -45 9 0 10 5 4 17 -5 10 -6 20 -3 24 3
3 3 6 0 6 -4 0 -7 -1 -8 -2z"/>
<path d="M277 1613 c-3 -5 -1 -15 5 -23 8 -12 9 -11 4 5 l-6 20 16 -20 c15
-19 16 -19 12 -1 -3 21 -23 32 -31 19z"/>
<path d="M2816 1596 c3 -8 13 -17 22 -21 13 -5 13 -2 -3 15 -21 24 -26 25 -19
6z"/>
<path d="M430 1590 c0 -5 5 -10 11 -10 5 0 7 5 4 10 -3 6 -8 10 -11 10 -2 0
-4 -4 -4 -10z"/>
<path d="M604 1588 c-4 -5 -3 -12 0 -15 3 -4 6 -1 6 6 0 7 4 10 9 6 5 -3 12
-2 15 3 3 5 -2 9 -10 9 -8 0 -17 -4 -20 -9z"/>
<path d="M3081 1584 c0 -11 3 -14 6 -6 3 7 2 16 -1 19 -3 4 -6 -2 -5 -13z"/>
<path d="M2975 1570 c3 -5 8 -10 11 -10 2 0 4 5 4 10 0 6 -5 10 -11 10 -5 0
-7 -4 -4 -10z"/>
<path d="M710 1550 c0 -5 5 -10 11 -10 5 0 7 5 4 10 -3 6 -8 10 -11 10 -2 0
-4 -4 -4 -10z"/>
<path d="M2730 1549 c0 -5 5 -7 10 -4 6 3 10 8 10 11 0 2 -4 4 -10 4 -5 0 -10
-5 -10 -11z"/>
<path d="M756 1357 c3 -10 9 -15 12 -12 3 3 0 11 -7 18 -10 9 -11 8 -5 -6z"/>
<path d="M2626 1282 c-3 -5 1 -9 9 -9 8 0 12 4 9 9 -3 4 -7 8 -9 8 -2 0 -6 -4
-9 -8z"/>
<path d="M2615 1250 c3 -5 8 -10 11 -10 2 0 4 5 4 10 0 6 -5 10 -11 10 -5 0
-7 -4 -4 -10z"/>
<path d="M830 1176 c0 -2 7 -7 16 -10 8 -3 12 -2 9 4 -6 10 -25 14 -25 6z"/>
<path d="M2553 1125 c0 -8 4 -12 9 -9 5 3 6 10 3 15 -9 13 -12 11 -12 -6z"/>
<path d="M876 1117 c3 -10 9 -15 12 -12 3 3 0 11 -7 18 -10 9 -11 8 -5 -6z"/>
<path d="M2497 1107 c-3 -8 1 -14 8 -14 7 0 11 6 8 14 -3 7 -6 13 -8 13 -2 0
-5 -6 -8 -13z"/>
<path d="M947 1062 c5 -11 3 -13 -7 -7 -9 5 -11 4 -6 -3 5 -9 12 -8 26 0 20
13 19 21 -5 24 -9 1 -11 -4 -8 -14z"/>
<path d="M986 1031 c-4 -5 -2 -12 3 -15 5 -4 12 -2 15 3 4 5 2 12 -3 15 -5 4
-12 2 -15 -3z"/>
<path d="M2455 1010 c-3 -5 -1 -10 4 -10 6 0 11 5 11 10 0 6 -2 10 -4 10 -3 0
-8 -4 -11 -10z"/>
<path d="M980 990 c-9 -6 -10 -10 -3 -10 6 0 15 5 18 10 8 12 4 12 -15 0z"/>
<path d="M1050 970 c0 -5 5 -10 11 -10 5 0 7 5 4 10 -3 6 -8 10 -11 10 -2 0
-4 -4 -4 -10z"/>
<path d="M1070 926 c0 -3 9 -10 20 -16 11 -6 20 -8 20 -6 0 3 -9 10 -20 16
-11 6 -20 8 -20 6z"/>
<path d="M1142 874 c10 -10 20 -15 24 -12 3 4 -5 12 -18 18 -22 12 -22 12 -6
-6z"/>
<path d="M1397 755 c-4 -8 -3 -16 1 -19 4 -3 9 4 9 15 2 23 -3 25 -10 4z"/>
<path d="M1420 749 c0 -13 28 -18 33 -6 3 7 -3 13 -14 13 -11 0 -19 -3 -19 -7z"/>
<path d="M1902 720 c-8 -14 -9 -21 0 -26 6 -4 8 -3 4 4 -3 6 -2 13 4 17 5 3
10 1 10 -6 0 -7 3 -10 6 -6 3 3 2 12 -3 21 -7 13 -10 13 -21 -4z"/>
<path d="M1588 663 c7 -3 16 -2 19 1 4 3 -2 6 -13 5 -11 0 -14 -3 -6 -6z"/>
<path d="M1826 641 c-4 -5 -1 -13 5 -17 8 -4 9 -3 5 4 -4 7 -3 12 3 12 5 0 12
-5 14 -10 3 -6 4 -5 3 2 -3 16 -23 22 -30 9z"/>
<path d="M1824 564 c0 -15 9 -26 26 -33 24 -11 24 -11 5 4 -17 14 -18 17 -5
25 11 7 11 10 2 10 -7 0 -11 4 -8 8 3 5 -1 9 -7 9 -7 0 -13 -11 -13 -23z"/>
<path d="M1823 515 c0 -7 6 -11 14 -8 7 3 13 6 13 8 0 2 -6 5 -13 8 -8 3 -14
-1 -14 -8z"/>
<path d="M1650 109 c0 -5 5 -7 10 -4 6 3 10 8 10 11 0 2 -4 4 -10 4 -5 0 -10
-5 -10 -11z"/>
</g>
</svg>
